<svg xmlns="http://www.w3.org/2000/svg" xmlns:xlink="http://www.w3.org/1999/xlink" width="1080" zoomAndPan="magnify" viewBox="0 0 810 1012.49997" height="1350" preserveAspectRatio="xMidYMid meet" version="1.0"><defs><clipPath id="18c2bdfc62"><path d="M 0.199219 0 L 809.800781 0 L 809.800781 1012 L 0.199219 1012 Z M 0.199219 0 " clip-rule="nonzero"/></clipPath></defs><g clip-path="url(#18c2bdfc62)"><path fill="#ffffff" d="M 0.199219 0 L 809.800781 0 L 809.800781 1012 L 0.199219 1012 Z M 0.199219 0 " fill-opacity="1" fill-rule="nonzero"/><path fill="#ffffff" d="M 0.199219 0 L 809.800781 0 L 809.800781 1012 L 0.199219 1012 Z M 0.199219 0 " fill-opacity="1" fill-rule="nonzero"/></g><path fill="#ff3131" d="M 736.742188 455.003906 C 717.054688 435.714844 690.359375 423.488281 665.007812 413.636719 C 607.773438 391.398438 548.105469 381.515625 486.957031 379.988281 C 426.453125 378.476562 365.628906 382.25 305.570312 389.515625 C 292.457031 391.101562 279.371094 392.902344 266.324219 394.953125 C 263.078125 395.460938 260.328125 398.132812 260.582031 399.773438 C 260.730469 400.757812 261.957031 401.371094 264.800781 400.921875 C 321.589844 392.035156 379.769531 391.078125 437.105469 393.332031 C 495.289062 395.617188 553.132812 402.152344 609.453125 417.34375 C 637.347656 424.867188 665.648438 434.121094 690.574219 449.023438 C 706.75 458.695312 724.089844 472.660156 726.570312 492.621094 C 728.316406 506.636719 723.277344 518.25 714.804688 527.847656 C 702.441406 534.980469 688.40625 540.066406 678.050781 543.484375 C 624.394531 561.175781 567.109375 569.832031 511.121094 576.324219 C 451.320312 583.257812 390.980469 586.667969 330.773438 585.8125 C 268.488281 584.925781 205.199219 578.90625 144.34375 565.222656 C 123.039062 560.429688 99.164062 554.46875 82.003906 540.144531 C 69.453125 529.667969 61.882812 513.089844 69.5 497.421875 C 79.335938 477.1875 104.207031 465.984375 123.902344 458.230469 C 148.824219 448.421875 175.359375 442.199219 201.503906 436.535156 C 249.625 426.117188 298.65625 422.042969 347.761719 419.828125 C 364.351562 419.082031 380.945312 418.519531 397.539062 418.027344 C 399.582031 417.96875 403.898438 417.335938 404.777344 415.054688 C 405.609375 412.894531 404.078125 411.835938 401.824219 411.902344 C 344.523438 413.597656 286.820312 415.566406 230.210938 425.289062 C 206.542969 429.351562 183.136719 434.742188 159.933594 440.902344 C 137.292969 446.910156 113.964844 454.21875 93.425781 466.027344 C 101.339844 460.433594 110.023438 455.882812 118.203125 452.175781 C 143.160156 440.863281 170.480469 434.792969 197.171875 429.027344 C 250.105469 417.589844 304.105469 412.4375 358.125 409.71875 C 375.457031 408.847656 392.804688 408.210938 410.152344 407.695312 C 412.191406 407.632812 416.511719 407.003906 417.386719 404.722656 C 418.21875 402.5625 416.6875 401.5 414.4375 401.566406 C 352.558594 403.40625 290.433594 406.550781 229.339844 417.109375 C 203.636719 421.550781 178.128906 427.222656 152.953125 434.054688 C 126.023438 441.363281 98.183594 451.96875 76.953125 470.664062 C 63.648438 482.382812 52.292969 499.074219 55.476562 517.625 C 55.742188 519.179688 56.128906 520.679688 56.570312 522.160156 C 56.683594 522.558594 56.816406 522.949219 56.9375 523.34375 C 57.082031 523.769531 57.214844 524.195312 57.371094 524.613281 C 58.40625 527.527344 59.785156 530.261719 61.441406 532.820312 C 61.742188 533.296875 62.0625 533.765625 62.378906 534.234375 C 62.480469 534.378906 62.578125 534.53125 62.683594 534.675781 C 69.398438 544.378906 79.542969 552.023438 89.4375 557.800781 C 112.074219 571.015625 138.269531 578.152344 163.699219 583.675781 C 195.828125 590.652344 228.582031 594.710938 261.324219 597.4375 C 325.753906 602.804688 390.730469 603.109375 455.285156 599.945312 C 512.566406 597.140625 569.898438 591.492188 625.546875 577.019531 C 650.140625 570.625 674.867188 562.5625 697.011719 549.878906 C 706.242188 544.589844 715.480469 538.183594 722.878906 530.246094 C 735.089844 523.132812 747.023438 513.550781 751.828125 500.113281 C 757.867188 483.210938 748.660156 466.683594 736.742188 455.003906 Z M 659.445312 560.730469 C 608.585938 579.605469 553.410156 587 499.578125 591.269531 C 439.941406 596 379.878906 596.925781 320.109375 594.589844 C 267.257812 592.523438 212.910156 588.667969 161.238281 575.839844 C 164.574219 576.417969 167.902344 576.972656 171.214844 577.515625 C 204.058594 582.925781 237.1875 587.328125 270.398438 589.652344 C 335.847656 594.234375 401.824219 592.175781 467.144531 586.5625 C 526.597656 581.453125 586.203125 573.066406 644.199219 558.828125 C 662.121094 554.429688 680.167969 549.410156 697.378906 542.492188 C 685.109375 550.507812 671.058594 556.421875 659.445312 560.730469 Z M 734.824219 511.824219 C 750.886719 471.621094 704.417969 444.046875 673.273438 430.703125 C 617.148438 406.660156 555.179688 395.953125 494.671875 390.578125 C 470.480469 388.425781 446.152344 387.027344 421.792969 386.4375 C 424.796875 386.34375 427.804688 386.253906 430.808594 386.179688 C 486.371094 384.796875 542.082031 386.714844 596.238281 400.121094 C 627.894531 407.957031 659.40625 418.234375 688.445312 433.238281 C 707.457031 443.066406 730.757812 456.535156 739.707031 477.1875 C 745.699219 491.015625 742.539062 502.449219 734.824219 511.824219 Z M 734.824219 511.824219 " fill-opacity="1" fill-rule="nonzero"/></svg>